<svg xmlns="http://www.w3.org/2000/svg" viewBox="0 0 600 440"><rect width="600" height="440" fill="#dce9d9"/><circle cx="470" cy="92" r="70" fill="#e7bd52" opacity=".75"/><path d="M290 400V190" stroke="#315c4b" stroke-width="12"/><path d="M292 218C185 198 100 113 165 58c75-63 138 38 127 160Z" fill="#315c4b"/><path d="M301 267c87-22 173-108 117-166-65-68-134 23-117 166Z" fill="#4d805e"/><path d="M288 315c-88 14-159-35-134-92 32-72 111-45 134 92Z" fill="#62956a"/><g fill="#dce9d9"><ellipse cx="191" cy="111" rx="7" ry="32" transform="rotate(-42 191 111)"/><ellipse cx="250" cy="110" rx="7" ry="35" transform="rotate(18 250 110)"/><ellipse cx="358" cy="184" rx="7" ry="35" transform="rotate(43 358 184)"/><ellipse cx="395" cy="135" rx="7" ry="29" transform="rotate(-28 395 135)"/></g><path d="M160 401h270" stroke="#19352d" stroke-width="9" stroke-linecap="round"/></svg>